<svg xmlns="http://www.w3.org/2000/svg" viewBox="0 0 64 64">
  <defs>
    <linearGradient id="g" x1="0%" x2="100%" y1="0%" y2="100%">
      <stop offset="0%" stop-color="#34d399" />
      <stop offset="100%" stop-color="#6366f1" />
    </linearGradient>
  </defs>
  <rect x="4" y="4" width="56" height="56" rx="14" fill="#0f172a" />
  <rect x="6" y="6" width="52" height="52" rx="12" fill="url(#g)" opacity="0.18" />
  <path
    d="M40.8 24.1c-2.4-2.4-5.5-3.6-9.1-3.6-6.8 0-12 5.2-12 11.9s5.2 11.9 12.2 11.9c3.3 0 6.2-1 8.9-2.8v-6c-2.2 2.2-5.1 3.5-8.5 3.5-3.9 0-6.8-2.7-6.8-6.6s2.9-6.6 6.8-6.6c3.3 0 6.2 1.2 8.5 3.4v-6.1z"
    fill="#e2e8f0" />
</svg>
